<?xml version="1.0" standalone="no"?>
<!DOCTYPE svg PUBLIC "-//W3C//DTD SVG 20010904//EN"
 "http://www.w3.org/TR/2001/REC-SVG-20010904/DTD/svg10.dtd">
<svg version="1.0" xmlns="http://www.w3.org/2000/svg"
 width="1024.000000pt" height="1024.000000pt" viewBox="0 0 1024.000000 1024.000000"
 preserveAspectRatio="xMidYMid meet">
<metadata>
Created by potrace 1.11, written by Peter Selinger 2001-2013
</metadata>
<g transform="translate(0.000000,1024.000000) scale(0.100000,-0.100000)" stroke="none">
<path d="M4805 9409 c-1855 -146 -3392 -1491 -3774 -3304 -353 -1673 348
-3393 1769 -4340 564 -377 1171 -598 1865 -681 211 -26 699 -26 910 0 681 81
1289 301 1840 663 834 550 1448 1381 1721 2333 293 1022 190 2112 -291 3055
-540 1059 -1502 1837 -2650 2144 -435 117 -946 164 -1390 130z m640 -249
c1091 -94 2069 -618 2756 -1477 448 -561 730 -1235 826 -1978 26 -200 26 -730
0 -930 -110 -851 -452 -1588 -1029 -2215 -194 -211 -449 -427 -702 -595 -518
-344 -1077 -550 -1711 -632 -200 -25 -730 -25 -930 0 -839 108 -1562 440
-2189 1005 -65 59 -166 159 -224 222 -577 627 -919 1364 -1029 2215 -26 200
-26 730 0 930 110 851 452 1588 1029 2215 263 286 616 562 973 761 472 263
1020 430 1565 478 139 12 526 12 665 1z"/>
<path d="M3740 5125 l0 -2286 1053 4 c1157 3 1115 1 1380 67 508 127 846 437
957 878 32 125 45 320 32 454 -22 216 -77 364 -191 515 -194 258 -457 419
-771 474 l-75 13 60 13 c345 74 609 273 741 557 53 117 75 215 81 364 14 352
-94 651 -314 863 -212 205 -503 324 -873 358 -71 7 -489 11 -1097 11 l-983 0
0 -2285z m2185 2017 c430 -82 695 -294 781 -627 29 -109 26 -380 -4 -495 -82
-308 -308 -533 -627 -625 -207 -59 -192 -59 -1157 -62 l-888 -4 0 921 0 921
893 -4 c857 -4 896 -5 1002 -25z m20 -2080 c216 -35 321 -68 470 -145 215
-112 373 -300 437 -523 21 -71 23 -99 23 -284 -1 -242 -14 -309 -97 -480 -46
-95 -61 -115 -152 -205 -173 -171 -379 -266 -697 -321 -81 -15 -217 -17 -996
-21 l-903 -4 0 1006 0 1006 893 -4 c855 -3 897 -4 1022 -25z"/>
</g>
</svg>
