<?xml version="1.0" standalone="no"?>
<!DOCTYPE svg PUBLIC "-//W3C//DTD SVG 20010904//EN"
 "http://www.w3.org/TR/2001/REC-SVG-20010904/DTD/svg10.dtd">
<svg version="1.0" xmlns="http://www.w3.org/2000/svg"
 width="50.000000pt" height="50.000000pt" viewBox="0 0 50.000000 50.000000"
 preserveAspectRatio="xMidYMid meet">
<metadata>
Created by potrace 1.11, written by Peter Selinger 2001-2013
</metadata>
<g transform="translate(0.000000,50.000000) scale(0.100000,-0.100000)"
 stroke="none">
<path d="M233 482 c-2 -10 -24 -25 -52 -35 -58 -20 -115 -79 -132 -136 -7 -23
-19 -41 -30 -44 -24 -7 -24 -27 0 -34 11 -3 23 -21 30 -44 17 -57 74 -116 132
-136 28 -10 50 -25 52 -35 6 -23 28 -23 34 0 2 10 24 25 52 35 58 20 115 79
132 136 7 23 19 41 30 44 24 7 24 27 0 34 -11 3 -23 21 -30 44 -17 57 -74 116
-132 136 -28 10 -50 25 -52 35 -3 10 -10 18 -17 18 -7 0 -14 -8 -17 -18z m-3
-77 c0 -8 9 -15 20 -15 11 0 20 7 20 15 0 19 14 19 57 -1 39 -19 78 -66 88
-106 6 -22 4 -28 -9 -28 -9 0 -16 -8 -16 -20 0 -11 7 -20 15 -20 19 0 19 -14
-1 -57 -19 -39 -66 -78 -106 -88 -22 -6 -28 -4 -28 9 0 9 -8 16 -20 16 -12 0
-20 -7 -20 -16 0 -13 -6 -15 -27 -9 -41 10 -88 49 -107 88 -20 43 -20 57 -1
57 8 0 15 9 15 20 0 12 -7 20 -16 20 -41 0 20 105 78 133 41 21 58 21 58 2z"/>
<path d="M225 320 c-77 -30 -57 -143 25 -143 41 0 73 32 73 73 0 50 -53 88
-98 70z"/>
</g>
</svg>
