<?xml version="1.0" standalone="no"?>
<!DOCTYPE svg PUBLIC "-//W3C//DTD SVG 20010904//EN"
 "http://www.w3.org/TR/2001/REC-SVG-20010904/DTD/svg10.dtd">
<svg version="1.0" xmlns="http://www.w3.org/2000/svg"
 width="50.000000pt" height="50.000000pt" viewBox="0 0 50.000000 50.000000"
 preserveAspectRatio="xMidYMid meet">
<metadata>
Created by potrace 1.11, written by Peter Selinger 2001-2013
</metadata>
<g transform="translate(0.000000,50.000000) scale(0.100000,-0.100000)"
 stroke="none">
<path d="M191 483 c-55 -29 -76 -65 -76 -133 1 -49 8 -73 48 -152 25 -51 56
-104 67 -118 l20 -25 20 25 c40 50 111 204 116 255 12 116 -98 199 -195 148z
m143 -42 c28 -28 31 -38 31 -91 -1 -49 -8 -72 -43 -142 -24 -46 -49 -92 -57
-102 -15 -20 -15 -20 -30 0 -33 42 -96 182 -101 225 -17 125 114 196 200 110z"/>
<path d="M97 146 c-81 -22 -112 -69 -64 -100 126 -83 506 -39 451 52 -12 20
-66 47 -111 56 -40 7 -45 -11 -5 -19 38 -8 95 -38 100 -53 2 -7 -16 -22 -45
-35 -71 -33 -275 -33 -346 0 -29 13 -47 28 -45 35 5 15 62 45 101 53 15 3 27
10 27 15 0 12 -3 12 -63 -4z"/>
</g>
</svg>
