<?xml version="1.0" standalone="no"?>
<!DOCTYPE svg PUBLIC "-//W3C//DTD SVG 20010904//EN"
 "http://www.w3.org/TR/2001/REC-SVG-20010904/DTD/svg10.dtd">
<svg version="1.0" xmlns="http://www.w3.org/2000/svg"
 width="1024.000000pt" height="1024.000000pt" viewBox="0 0 1024.000000 1024.000000"
 preserveAspectRatio="xMidYMid meet">
<metadata>
Created by potrace 1.11, written by Peter Selinger 2001-2013
</metadata>
<g transform="translate(0.000000,1024.000000) scale(0.100000,-0.100000)"
 stroke="none">
<path d="M4805 9409 c-1855 -146 -3392 -1491 -3774 -3304 -353 -1673 348
-3393 1769 -4340 564 -377 1171 -598 1865 -681 211 -26 699 -26 910 0 681 81
1289 301 1840 663 834 550 1448 1381 1721 2333 293 1022 190 2112 -291 3055
-540 1059 -1502 1837 -2650 2144 -435 117 -946 164 -1390 130z m640 -249
c1091 -94 2069 -618 2756 -1477 448 -561 730 -1235 826 -1978 26 -200 26 -730
0 -930 -110 -851 -452 -1588 -1029 -2215 -194 -211 -449 -427 -702 -595 -518
-344 -1077 -550 -1711 -632 -200 -25 -730 -25 -930 0 -839 108 -1562 440
-2189 1005 -65 59 -166 159 -224 222 -577 627 -919 1364 -1029 2215 -26 200
-26 730 0 930 110 851 452 1588 1029 2215 263 286 616 562 973 761 472 263
1020 430 1565 478 139 12 526 12 665 1z"/>
<path d="M3370 7290 l0 -120 805 0 805 0 0 -2165 0 -2165 140 0 140 0 0 2165
0 2165 805 0 805 0 0 120 0 120 -1750 0 -1750 0 0 -120z"/>
</g>
</svg>
