<?xml version="1.0" standalone="no"?>
<!DOCTYPE svg PUBLIC "-//W3C//DTD SVG 20010904//EN"
 "http://www.w3.org/TR/2001/REC-SVG-20010904/DTD/svg10.dtd">
<svg version="1.0" xmlns="http://www.w3.org/2000/svg"
 width="50.000000pt" height="50.000000pt" viewBox="0 0 50.000000 50.000000"
 preserveAspectRatio="xMidYMid meet">
<metadata>
Created by potrace 1.11, written by Peter Selinger 2001-2013
</metadata>
<g transform="translate(0.000000,50.000000) scale(0.100000,-0.100000)"
 stroke="none">
<path d="M0 282 l0 -198 65 -32 65 -32 60 30 59 30 65 -31 65 -31 61 33 60 32
0 198 c0 110 -3 199 -7 199 -3 0 -30 -13 -59 -30 l-53 -29 -65 29 -66 30 -60
-30 -60 -30 -60 30 c-33 16 -62 30 -65 30 -3 0 -5 -89 -5 -198z m313 147 l65
-30 51 26 51 25 0 -177 0 -178 -50 -27 -49 -27 -65 29 -66 30 -60 -30 -59 -30
-56 27 -55 27 0 178 c0 98 2 178 5 178 3 0 28 -11 55 -25 l50 -25 57 29 c32
17 59 30 59 31 1 0 31 -14 67 -31z"/>
</g>
</svg>
